<?xml version="1.0" encoding="UTF-8"?>
<svg id="Layer_1" data-name="Layer 1" xmlns="http://www.w3.org/2000/svg" viewBox="205 120 580 665">
  <defs>
    <style>
      .cls-1 {
        fill: #fff;
      }

      .cls-2 {
        fill: none;
      }

      .cls-3 {
        fill: #8b4513;
      }
    </style>
  </defs>
  <path class="cls-2" d="M511.03,652.33c6.58,1.92,12.78-18.47,8.42-25.02-1.07-1.61-2.98-1.81-4.51-.72-2.27,1.62-3.5,4.08-4.07,6.84l-3.15,15.28c.69,1.5,1.6,3.12,3.31,3.62Z"/>
  <path class="cls-2" d="M399.59,671.13c.08.89.42,1.63.98,1.97,4.71,2.86,7.84-9.59,8.1-13.09-3.8,1.78-9.63,6.59-9.08,11.12Z"/>
  <path class="cls-2" d="M537.06,487.45c9.67,0,2.4-13.17,10.62-37.4,4.3-12.66,10.08-24.1,17.91-34.93,20.96-29,23.24-65.2,2.74-94.66-25.44-36.54-76.25-41.6-108.21-10.69-25.34,24.51-32.13,63.62-12.88,93.71l13.16,20.57c10.94,17.09,17.03,36.12,17.28,56.57.04,3.67,3.39,6.8,6.99,6.81l52.38.02ZM511.84,339.46l13.46,33.55c6.2,13.5,13.29,26.12,22.54,37.97-10.1,15.39-17.93,30.34-19.36,49.75l-16.83.16v-37.28c4.3-2.57,8.31-5.41,8.36-9.91.06-5.05-2.36-9.43-8.46-11.06l.3-63.17ZM509.56,467.33c5.39-.03,10.83.02,16.5.15,2.92.06,3.62,9.25.06,9.85-5.65.96-11.32,1.35-16.92,1.33-5.14.05-10.22-.31-15.16-.93-1.64-.21-2.4-2.46-2.42-4.79-.02-2.33.71-4.74,2.03-5.28,5.36-.22,10.6-.32,15.91-.34ZM456.93,368.29c.04.6-1.86,3.46-2.26,3.04-8.69-9.17,5.63-47.15,18.93-51.39.66-.21,2.01,1.39,1.92,2.07-.55,3.84-20.39,16.99-18.59,46.28ZM470.86,411.19c18.39-22.98,26.27-44.5,36.73-72.38l-.04,63.71c-5.4,2.07-7.89,6-8.22,10.37-.33,4.41,3.32,7.78,7.85,10.16l.19,37.74c-5.6.37-10.12.42-15.5.17-2.43-18.79-10.21-34.43-21.02-49.77Z"/>
  <path class="cls-2" d="M551.1,615.51c-1.49-.54-2.92-1.17-4.29-1.85-1.73,5.09-3.03,10.31-3.44,13.69,2.35-3.11,5.3-7.38,7.74-11.84Z"/>
  <path class="cls-2" d="M473.7,622.43c-1.31.6-2.41,1.68-3.2,2.96-3.01,4.87-4.88,10.36-5.31,16.07-.12,1.62,0,3.12.66,4.51.8,1.69,2.61,2.42,4.43,1.38,5.05-2.89,9.57-17.68,7.65-23.08-.64-1.81-2.44-2.66-4.23-1.84Z"/>
  <path class="cls-2" d="M245.85,310.53l-.05,295.26,255.75,147.68,255.74-147.62.04-295.3-255.7-147.61-255.77,147.59ZM336.68,616.53h-31.33v-92.94h31.33v92.94ZM630.36,523.59h75.54v23.63h-44.74v10.89h39.3v22.57h-39.3v12.21h46.47v23.63h-77.27v-92.94ZM556.81,523.59v50.18c0,7.08,1.28,12.11,3.85,15.07,2.57,2.97,6.02,4.45,10.36,4.45s7.9-1.48,10.42-4.45c2.52-2.96,3.78-7.99,3.78-15.07v-50.18h30.8v51.11c0,13.9-3.98,24.7-11.95,32.4-7.97,7.7-19.08,11.55-33.32,11.55-6.29,0-11.94-.8-17.01-2.3-1.27,2.21-2.6,4.39-3.87,6.69,3.01-1.19,7.52-6.07,10.96-3.72,7.18,4.9-6.38,26.74-2.01,29.25,2.21,1.27,8.16-6.39,8.8-8.14,1.7-6.54,2.61-13.12,5.09-19.43l9.45-2.29-4.42,16.91c-.6,2.29-2.59,10.27-.08,11.27,2.62,1.05,6.52-4.36,7.57-6.39,1.08-7.47,4.27-14.4,10.21-19.15,2.7-2.15,6.01-3.25,9.45-2.44,3.85.91,6.41,5.8,4.5,9.34-1.59,1.88-4.53,2.65-6.52,3.95-1.29-1.22,1.45-8-1.53-9.5-6.21-3.12-12.63,21.54-2.68,25.5,2.8,1.11,5.81.09,8.07-1.8,6.42-5.36,14.18-17.74,16.57-25.93,2.83-.79,5.53-1.67,8.43-1.65-1.42,5.48-1.31,6.93,1.4,11.72,4.91,8.66-.37,18.12-7.43,23.23-3.85,2.78-9.61,3.5-12.66-.79-.65-.92-.68-2.13-.15-3.12.75-1.41,3.24-5.69,4.76-5.34,1.62.38,1.56,5.64,3.7,6.61,3.22,1.45,7.36-3.38,7.08-7.71-.28-4.19-4.26-9.16-5.65-13.99-5.18,9.17-17.49,30.6-30.42,25.91-4.05-1.47-6.22-5.24-7.08-9.45-3.17,3.43-11.29,14.54-15.72,8.21-1.57-2.24-1.99-4.83-2.2-7.82-3.26,3.66-9.76,11.26-15.06,9.5-7.02-2.33-3.05-14.16-1.48-19.12.63-1.97,3.76-9.57,1.75-10.18-2.93-.9-9.44,6.28-10.24,8.76-1.94,6.01-1.02,12.39-1.63,18.53l-7.91,2.27c-1.09-11.02-.42-21.97,2.25-32.76,1.22-4.93,3-9.5,4.87-14.01-.86-.69-1.71-1.39-2.51-2.16-7.97-7.7-11.95-18.5-11.95-32.4v-20.85c-4.43,2.05-9.21,3.3-14.16,3.5-10.92.46-21.34-4.03-29.1-11.73-1.53-.16-3.04-.26-4.54-.26-3.01,0-5.4.27-7.17.8-1.77.53-3.03,1.24-3.78,2.12-.75.89-1.13,1.86-1.13,2.92,0,1.59.93,2.85,2.79,3.78,1.86.93,4.31,1.7,7.37,2.32,3.05.62,6.42,1.28,10.09,1.99,3.67.71,7.32,1.68,10.95,2.92,3.63,1.24,6.97,2.88,10.02,4.91,3.05,2.04,5.51,4.69,7.37,7.97,1.86,3.28,2.79,7.35,2.79,12.21,0,5.66-1.62,10.87-4.84,15.6-3.23,4.74-8.03,8.54-14.41,11.42-5.96,2.69-13.37,4.1-22.19,4.28,2.5.29,4.54,1.99,5.42,4.77l7.03-4.5c.59-.38,1.69-.42,2.26.05l-4.46,18.18c-.58,2.37-2.16,9.55.41,10.49.74.27,1.9.1,2.61-.56,7.77-7.23,12.7-16.69,16.29-26.61l8.04-1.74c.21.73-1.73,7.21-.49,6.09,1.5-1.84,2.86-3.61,4.82-4.81,2.7-1.66,6.25-1.78,8.68.37,2.17,1.91,3.31,4.62,3.63,7.6,1.01,9.3-2.55,18.52-9.38,24.84-3.4,3.15-9.61,4.99-13.33.69l-3.37,21.55-9.06,1.84,6.15-39.43-5.08,6.99c-1.87,2.58-8.86,10.24-12.33,11.33-2.61.82-4.89-.47-5.89-2.97-1.02-2.57-.93-5.18-1.24-8.22-2.63,3.97-5.8,9.38-10.23,11-2.61.96-5.2.25-6.93-1.87-1.72-2.1-2.49-4.51-3.03-7.51-3.5,3.57-13.17,15.05-17.5,7.19-3.28-5.95.97-14.57,3.85-20.57l-5.36,1.79c-2.46,4.88-5.53,9.23-9.3,13.13-2.13,2.2-4.67,3.64-7.28,5.42-1.17,7.61-3.17,15.32-9.28,20.59-2.62,2.26-5.83,3.47-9.26,3.14-3.09-.3-5.15-2.61-5.22-5.75-.16-7.27,7.39-12.48,12.95-15.78l2.23-9.37c-2.69,3.53-5.83,6.31-9.85,8.02-4.44,1.89-9.22.74-12.41-2.86-2.75-3.1-4.39-6.82-5.19-10.95-1.43-7.43-.62-14.7,1.81-21.53-7.71-.02-15.16-.9-22.35-2.65-7.26-1.77-13.23-4.07-17.92-6.9l10.09-22.84c4.43,2.57,9.36,4.63,14.8,6.17,5.44,1.55,10.73,2.32,15.87,2.32,3.01,0,5.38-.2,7.1-.6,1.73-.4,2.99-.97,3.78-1.73.8-.75,1.2-1.66,1.2-2.72,0-1.68-.93-3.01-2.79-3.98-1.86-.97-4.31-1.79-7.37-2.45-3.05-.66-6.39-1.37-10.02-2.12-3.63-.75-7.28-1.75-10.95-2.99-3.67-1.24-7.04-2.88-10.09-4.91-3.05-2.04-5.51-4.71-7.37-8.03s-2.79-7.46-2.79-12.41c0-5.75,1.61-11,4.85-15.73,3.23-4.73,8.05-8.52,14.47-11.35,6.42-2.83,14.4-4.25,23.96-4.25,6.28,0,12.48.66,18.59,1.99,6.11,1.33,11.59,3.36,16.46,6.11l-9.43,22.7c-4.6-2.3-9.05-4.03-13.34-5.18-4.29-1.15-8.48-1.73-12.55-1.73-3.01,0-5.4.27-7.17.8-1.77.53-3.03,1.24-3.78,2.12-.75.89-1.13,1.86-1.13,2.92,0,1.59.93,2.85,2.79,3.78,1.86.93,4.31,1.7,7.37,2.32,3.05.62,6.42,1.28,10.09,1.99,3.67.71,7.32,1.68,10.95,2.92,3.63,1.24,6.97,2.88,10.02,4.91,3.05,2.04,5.51,4.69,7.37,7.97,1.86,3.28,2.79,7.35,2.79,12.21s-1.17,9.23-3.47,13.35c1.39,2.59,1.91,5.6,1.96,8.38.11,6.43-2.73,12.36-7.82,16.11-3.18,2.34-7.43,2.85-10.77,1.03-1.79-.97-2.92-2.7-3.21-4.22-.4-2.13.04-4.14,1.61-5.42.45-.37,1.13-.31,1.59-.17.95.28.04,2.34,1.56,3.51,3.7,2.85,9.15-4.79,9.71-12.33-2.81,2.65-6.27,4.91-10.4,6.78-4.06,1.83-8.8,3.08-14.19,3.74-1.46,4.84-2.22,9.89-2.13,14.98.06,3.59.83,6.92,2.59,9.86,1.91,3.2,5.33,4.63,8.89,3.56,5.02-1.52,8.6-7.07,11.03-11.43l6.78-1.2c.46-.08.97.01,1.12.31.46.89-3.2,11.57-3.23,14.49,4.77-2.46,10.03-9.88,12.45-14.4-5.25-2.6-2.42-10.28-.04-13.51,1.23-1.67,3.37-2.51,5.31-1.88,3.25,1.05.78,8.2.16,10.79,4.86-.42,8.41-6.59,10.12-10.55,1.11-.36,2.26-.43,3.34-.17l-5.72,19.32c-.69,2.32-1.8,8.12.95,9.02.93.3,2.1.08,2.87-.61,2.01-1.82,3.72-3.75,5.39-5.89.97-7.63,4.86-14.46,10.91-19.02,1.92-1.45,3.91-2.55,6.23-3.03.16-.03.32-.03.48-.06-.04,0-.07,0-.1,0-7.79,0-15.31-.89-22.57-2.66-7.26-1.77-13.23-4.07-17.92-6.9l10.09-22.84c4.43,2.57,9.36,4.63,14.8,6.17,5.44,1.55,10.73,2.32,15.87,2.32,3.01,0,5.38-.2,7.1-.6,1.73-.4,2.99-.97,3.78-1.73.8-.75,1.2-1.66,1.2-2.72,0-1.68-.93-3.01-2.79-3.98-1.86-.97-4.31-1.79-7.37-2.45-3.05-.66-6.39-1.37-10.02-2.12-3.63-.75-7.28-1.75-10.95-2.99-3.67-1.24-7.04-2.88-10.09-4.91-3.05-2.04-5.51-4.71-7.37-8.03s-2.79-7.46-2.79-12.41c0-5.75,1.61-11,4.85-15.73,3.23-4.73,8.05-8.52,14.47-11.35,4.5-1.99,9.8-3.26,15.86-3.86-.23-1.26-.41-2.54-.53-3.84l80.28,3.16c-.13.82-.32,1.61-.49,2.42h7.72Z"/>
  <path class="cls-1" d="M537.53,496.95c7.5,0,14.2-5.55,14.25-13.27.13-20.21,5.8-39.08,16.65-56.24,4.99-7.9,10.4-14.89,14.49-23.3,17.66-36.32,9.21-79.46-21.65-105.31-33.25-27.85-81.67-24.66-110.99,7.48-13.76,15.09-21.76,34.5-22.74,55.28-.93,19.84,5.43,38.36,16.57,54.39,15.11,21.74,24.09,39.57,24.73,66.89.17,7.3,6,14.04,14.22,14.05l54.46.02ZM477.69,480.62c-.24-20.45-6.34-39.48-17.28-56.57l-13.16-20.57c-19.26-30.09-12.47-69.2,12.88-93.71,31.96-30.91,82.77-25.85,108.21,10.69,20.51,29.45,18.22,65.65-2.74,94.66-7.83,10.83-13.61,22.27-17.91,34.93-8.22,24.22-.95,37.4-10.62,37.4l-52.38-.02c-3.6,0-6.95-3.14-6.99-6.81Z"/>
  <path class="cls-1" d="M543.24,510.78c.21-1.76-1.64-5.34-3.89-5.34l-58.99.1c-2.12,1.6-3.33,3.93-3,6.13.25,1.64,3.06,4.46,5.07,4.45l55.67-.15c2.77,0,4.93-3.51,5.13-5.19Z"/>
  <path class="cls-1" d="M609.3,366.32c-.05,1.79,2.24,5.48,4.22,5.47l32.88-.12c2.03,0,4-4.41,3.67-6.12-.29-1.52-2.17-4.75-3.94-4.76l-32.39-.13c-1.98,0-4.4,3.86-4.45,5.65Z"/>
  <path class="cls-1" d="M410.02,365.39c-.21-1.64-2.49-4.73-4.28-4.73l-29.76-.08c-3.57,0-6.2,2.25-6.24,5.8-.02,2.2,2.6,5.49,5.27,5.48l30.89-.09c2.56,0,4.36-4.49,4.12-6.37Z"/>
  <path class="cls-1" d="M389.63,303.86l25.71,15.55c2.26,1.37,6.06.25,7.25-1.48,1.51-2.2,1.05-6.36-1.27-7.79l-26.24-16.09c-2.86-1.75-7.08-.57-8.28,2.12-1.25,2.81.14,6.08,2.83,7.7Z"/>
  <path class="cls-1" d="M605.69,318.5l24.5-15.12c2.67-1.65,3.27-5.77,1.83-8.05-1.12-1.78-5.21-2.92-7.3-1.65l-25.03,15.16c-3.21,1.94-4.43,5.28-2.55,8.59,1.58,2.77,5.4,3.03,8.56,1.08Z"/>
  <path class="cls-1" d="M598.8,419.37l24.07,15.27c2.83,1.8,6.27,1.99,8.17-.07,2.42-2.62,2.24-6.87-1.05-8.87l-25.41-15.47c-2.47-1.5-6.3-.86-7.46.99-1.86,2.96-.93,6.48,1.69,8.15Z"/>
  <path class="cls-1" d="M509.45,263.73c1.86.15,5.62-2.01,5.64-4.31l.24-31.83c.02-3.24-3.21-5.83-5.84-5.67-2.61.16-5.23,2.75-5.24,5.59l-.09,30.91c0,2.58,3.1,5.12,5.29,5.3Z"/>
  <path class="cls-1" d="M415.56,410.22l-25.16,15.35c-2,1.22-2.5,5.37-1.56,7.61.71,1.69,4.35,3.85,6.6,2.47l25.5-15.63c2.87-1.76,4.11-5.65,2.09-8.6-1.24-1.81-5.07-2.66-7.47-1.2Z"/>
  <path class="cls-1" d="M450.86,275.24c1.71,3,5.44,4.23,8.55,2.34,2-1.21,2.63-5.22,1.2-7.68l-14.83-25.45c-1.4-2.4-5.38-3.04-7.51-1.77-1.58.94-3.08,5.15-2.07,6.92l14.66,25.64Z"/>
  <path class="cls-1" d="M566.89,276.82l15.81-26.38c1.36-2.27.6-5.63-1.09-7.37-1.35-1.39-6.13-2.07-7.36.05l-15.26,26.45c-1.45,2.51-1.15,5.61.53,7.35,1.7,1.77,5.97,2.25,7.37-.1Z"/>
  <path class="cls-1" d="M524.65,530.74c1.91-2.1,2.63-5.22,2.01-7.42l-33.66.2c-.12,3.51.67,6.44,2.79,8.42,8.14,7.61,21.08,7.36,28.86-1.2Z"/>
  <path class="cls-1" d="M523.87,477.33c-4.9.89-9.81,1.29-14.66,1.33,5.6.01,11.26-.37,16.92-1.33,3.57-.6,2.86-9.79-.06-9.85-5.67-.12-11.12-.18-16.5-.15,4.65-.01,9.36.03,14.25.15,2.73.06,3.39,9.25.05,9.85Z"/>
  <path class="cls-1" d="M520,413.7c-.05,4.51-4.05,7.34-8.35,9.91v37.28s16.83-.16,16.83-.16c1.44-19.4,9.26-34.36,19.36-49.75-9.25-11.85-16.34-24.47-22.54-37.97l-13.46-33.55-.3,63.17c6.1,1.63,8.51,6.01,8.46,11.06Z"/>
  <path class="cls-1" d="M507.37,460.79l-.19-37.74c-4.53-2.38-8.18-5.75-7.85-10.16.33-4.37,2.81-8.3,8.22-10.37l.04-63.71c-10.46,27.88-18.34,49.4-36.73,72.38,10.8,15.34,18.59,30.98,21.02,49.77,5.38.24,9.89.2,15.5-.17Z"/>
  <path class="cls-1" d="M491.63,472.94c-.02-2.33.76-4.74,2.17-5.28,5.31-.2,10.51-.31,15.77-.34-5.31.02-10.55.12-15.91.34-1.33.53-2.05,2.95-2.03,5.28Z"/>
  <path class="cls-1" d="M491.63,472.94c.02,2.33.78,4.58,2.42,4.79,4.94.63,10.02.98,15.16.93-5.08-.01-10.1-.35-14.99-.93-1.76-.21-2.57-2.46-2.59-4.79Z"/>
  <path class="cls-1" d="M491.63,472.94c.02,2.33.83,4.58,2.59,4.79,4.89.58,9.91.92,14.99.93,4.86-.04,9.77-.44,14.66-1.33,3.33-.6,2.68-9.79-.05-9.85-4.89-.11-9.6-.16-14.25-.15-5.25.03-10.45.13-15.77.34-1.42.53-2.19,2.95-2.17,5.28Z"/>
  <path class="cls-1" d="M473.61,319.94c-13.3,4.24-27.62,42.22-18.93,51.39.4.42,2.29-2.44,2.26-3.04-1.8-29.3,18.04-42.44,18.59-46.28.1-.68-1.26-2.28-1.92-2.07Z"/>
  <path class="cls-3" d="M501.6,131.14l-283.09,163.35c-.54.91-.09,1.4-.09,2.44v322.26c0,.97-.54,2.01.2,2.71l282.83,163.45h.17l283.03-163.39v-327.5l-283.05-163.32ZM757.28,605.84l-255.74,147.62-255.75-147.68.05-295.26,255.77-147.59,255.7,147.61-.04,295.3Z"/>
  <path class="cls-1" d="M473.31,618.7c-2.32.48-4.31,1.58-6.23,3.03-6.05,4.56-9.94,11.4-10.91,19.02-1.67,2.14-3.38,4.07-5.39,5.89-.77.69-1.93.92-2.87.61-2.75-.9-1.64-6.69-.95-9.02l5.72-19.32c-1.08-.26-2.24-.19-3.34.17-1.71,3.96-5.26,10.13-10.12,10.55.62-2.59,3.09-9.74-.16-10.79-1.94-.62-4.08.22-5.31,1.88-2.37,3.23-5.21,10.9.04,13.51-2.42,4.51-7.68,11.93-12.45,14.4.03-2.92,3.68-13.6,3.23-14.49-.15-.3-.66-.39-1.12-.31l-6.78,1.2c-2.44,4.36-6.02,9.91-11.03,11.43-3.55,1.08-6.97-.36-8.89-3.56-1.76-2.94-2.53-6.28-2.59-9.86-.09-5.09.67-10.14,2.13-14.98-3.07.38-6.34.57-9.84.57-.07,0-.14,0-.22,0-2.43,6.83-3.24,14.1-1.81,21.53.8,4.14,2.44,7.86,5.19,10.95,3.2,3.6,7.97,4.75,12.41,2.86,4.02-1.71,7.16-4.5,9.85-8.02l-2.23,9.37c-5.56,3.3-13.11,8.51-12.95,15.78.07,3.14,2.12,5.45,5.22,5.75,3.43.33,6.64-.88,9.26-3.14,6.11-5.27,8.11-12.98,9.28-20.59,2.62-1.78,5.16-3.22,7.28-5.42,3.78-3.9,6.84-8.25,9.3-13.13l5.36-1.79c-2.88,6.01-7.12,14.63-3.85,20.57,4.33,7.86,14-3.62,17.5-7.19.54,3,1.31,5.4,3.03,7.51,1.74,2.13,4.32,2.83,6.93,1.87,4.43-1.62,7.59-7.04,10.23-11,.31,3.04.21,5.65,1.24,8.22,1,2.5,3.27,3.78,5.89,2.97,3.46-1.08,10.45-8.75,12.33-11.33l5.08-6.99-6.15,39.43,9.06-1.84,3.37-21.55c3.73,4.3,9.93,2.46,13.33-.69,6.82-6.32,10.39-15.54,9.38-24.84-.32-2.97-1.46-5.69-3.63-7.6-2.43-2.14-5.97-2.02-8.68-.37-1.96,1.2-3.32,2.97-4.82,4.81-1.24,1.13.7-5.36.49-6.09l-8.04,1.74c-3.59,9.92-8.52,19.38-16.29,26.61-.71.66-1.87.83-2.61.56-2.57-.94-.99-8.13-.41-10.49l4.46-18.18c-.57-.46-1.67-.43-2.26-.05l-7.03,4.5c-.88-2.77-2.92-4.48-5.42-4.77-.58.01-1.15.03-1.74.03-.16.02-.32.02-.48.06ZM400.57,673.11c-.57-.35-.9-1.08-.98-1.97-.55-4.53,5.28-9.33,9.08-11.12-.25,3.5-3.39,15.95-8.1,13.09ZM510.88,633.43c.57-2.76,1.79-5.22,4.07-6.84,1.54-1.1,3.44-.89,4.51.72,4.36,6.55-1.84,26.94-8.42,25.02-1.71-.5-2.62-2.12-3.31-3.62l3.15-15.28ZM477.93,624.27c1.91,5.4-2.61,20.19-7.65,23.08-1.82,1.04-3.63.31-4.43-1.38-.66-1.39-.79-2.89-.66-4.51.43-5.72,2.3-11.2,5.31-16.07.8-1.29,1.89-2.36,3.2-2.96,1.8-.82,3.59.03,4.23,1.84Z"/>
  <path class="cls-1" d="M420.91,607.56c-.57,7.53-6.01,15.17-9.71,12.33-1.51-1.16-.61-3.23-1.56-3.51-.46-.14-1.14-.2-1.59.17-1.57,1.28-2.02,3.29-1.61,5.42.29,1.52,1.42,3.25,3.21,4.22,3.34,1.82,7.6,1.32,10.77-1.03,5.09-3.76,7.93-9.68,7.82-16.11-.05-2.78-.57-5.79-1.96-8.38-.42.76-.87,1.51-1.38,2.25-1.14,1.66-2.48,3.21-4,4.64Z"/>
  <path class="cls-1" d="M543.37,627.35c.41-3.38,1.72-8.6,3.44-13.69-2.48-1.24-4.78-2.7-6.88-4.4-1.87,4.51-3.65,9.08-4.87,14.01-2.67,10.78-3.33,21.74-2.25,32.76l7.91-2.27c.62-6.14-.31-12.52,1.63-18.53.8-2.48,7.32-9.66,10.24-8.76,2.01.62-1.13,8.21-1.75,10.18-1.57,4.96-5.55,16.79,1.48,19.12,5.3,1.76,11.79-5.85,15.06-9.5.21,2.99.63,5.57,2.2,7.82,4.43,6.33,12.55-4.77,15.72-8.21.85,4.21,3.02,7.98,7.08,9.45,12.93,4.69,25.25-16.74,30.42-25.91,1.39,4.83,5.38,9.8,5.65,13.99.28,4.34-3.86,9.16-7.08,7.71-2.14-.97-2.08-6.23-3.7-6.61-1.53-.35-4.01,3.93-4.76,5.34-.53.99-.5,2.2.15,3.12,3.05,4.29,8.81,3.57,12.66.79,7.06-5.11,12.34-14.57,7.43-23.23-2.71-4.78-2.83-6.23-1.4-11.72-2.91-.02-5.6.86-8.43,1.65-2.39,8.19-10.15,20.57-16.57,25.93-2.26,1.88-5.26,2.91-8.07,1.8-9.95-3.95-3.53-28.62,2.68-25.5,2.98,1.5.24,8.27,1.53,9.5,1.99-1.3,4.93-2.07,6.52-3.95,1.92-3.54-.64-8.43-4.5-9.34-3.44-.81-6.75.28-9.45,2.44-5.94,4.74-9.13,11.68-10.21,19.15-1.06,2.03-4.95,7.43-7.57,6.39-2.51-1-.52-8.98.08-11.27l4.42-16.91-9.45,2.29c-2.49,6.31-3.39,12.88-5.09,19.43-.64,1.75-6.59,9.41-8.8,8.14-4.38-2.51,9.19-24.36,2.01-29.25-3.44-2.34-7.95,2.54-10.96,3.72,1.27-2.29,2.6-4.48,3.87-6.69-.89-.26-1.78-.53-2.64-.84-2.44,4.46-5.39,8.73-7.74,11.84Z"/>
  <rect class="cls-1" x="305.35" y="523.59" width="31.33" height="92.94"/>
  <path class="cls-1" d="M413.93,594.09c4.3-.12,8.84,1.55,11.43,5.1.35.47.64.97.92,1.49,2.3-4.12,3.47-8.57,3.47-13.35s-.93-8.94-2.79-12.21c-1.86-3.27-4.31-5.93-7.37-7.97-3.05-2.03-6.39-3.67-10.02-4.91-3.63-1.24-7.28-2.21-10.95-2.92-3.67-.71-7.04-1.37-10.09-1.99-3.05-.62-5.51-1.39-7.37-2.32-1.86-.93-2.79-2.19-2.79-3.78,0-1.06.38-2.03,1.13-2.92.75-.88,2.01-1.59,3.78-2.12,1.77-.53,4.16-.8,7.17-.8,4.07,0,8.25.58,12.55,1.73,4.29,1.15,8.74,2.88,13.34,5.18l9.43-22.7c-4.87-2.74-10.36-4.78-16.46-6.11-6.11-1.33-12.3-1.99-18.59-1.99-9.56,0-17.55,1.42-23.96,4.25-6.42,2.83-11.24,6.62-14.47,11.35-3.23,4.74-4.85,9.98-4.85,15.73,0,4.96.93,9.09,2.79,12.41s4.31,6,7.37,8.03c3.05,2.04,6.42,3.67,10.09,4.91,3.67,1.24,7.32,2.24,10.95,2.99,3.63.75,6.97,1.46,10.02,2.12,3.05.66,5.51,1.48,7.37,2.45,1.86.98,2.79,2.3,2.79,3.98,0,1.06-.4,1.97-1.2,2.72-.8.75-2.06,1.33-3.78,1.73-1.73.4-4.1.6-7.1.6-5.13,0-10.42-.77-15.87-2.32-5.44-1.55-10.38-3.6-14.8-6.17l-10.09,22.84c4.69,2.83,10.66,5.13,17.92,6.9,7.19,1.75,14.64,2.63,22.35,2.65,1.09-3.07,2.51-6.06,4.2-8.92,4.96-7.48,13.94-15.37,23.47-15.64Z"/>
  <path class="cls-1" d="M420.85,604.51c-.34-2.83-1.6-5.36-4.14-6.5-5.86-2.64-11.83,3-14.8,7.73-2.42,3.85-4.3,8.02-5.61,12.35,5.39-.67,10.13-1.91,14.19-3.74,4.13-1.86,7.59-4.13,10.4-6.78.08-1.03.07-2.06-.05-3.05Z"/>
  <path class="cls-1" d="M469.84,521.86c-6.05.59-11.35,1.87-15.86,3.86-6.42,2.83-11.24,6.62-14.47,11.35-3.23,4.74-4.85,9.98-4.85,15.73,0,4.96.93,9.09,2.79,12.41s4.31,6,7.37,8.03c3.05,2.04,6.42,3.67,10.09,4.91,3.67,1.24,7.32,2.24,10.95,2.99,3.63.75,6.97,1.46,10.02,2.12,3.05.66,5.51,1.48,7.37,2.45,1.86.98,2.79,2.3,2.79,3.98,0,1.06-.4,1.97-1.2,2.72-.8.75-2.06,1.33-3.78,1.73-1.73.4-4.1.6-7.1.6-5.13,0-10.42-.77-15.87-2.32-5.44-1.55-10.38-3.6-14.8-6.17l-10.09,22.84c4.69,2.83,10.66,5.13,17.92,6.9,7.26,1.77,14.78,2.66,22.57,2.66.04,0,.07,0,.1,0,.6-.08,1.18-.1,1.74-.03,8.82-.18,16.23-1.59,22.19-4.28,6.37-2.88,11.17-6.68,14.41-11.42,3.23-4.74,4.84-9.94,4.84-15.6,0-4.87-.93-8.94-2.79-12.21-1.86-3.27-4.31-5.93-7.37-7.97-3.05-2.03-6.4-3.67-10.02-4.91-3.63-1.24-7.28-2.21-10.95-2.92-3.67-.71-7.04-1.37-10.09-1.99-3.05-.62-5.51-1.39-7.37-2.32-1.86-.93-2.79-2.19-2.79-3.78,0-1.06.38-2.03,1.13-2.92.75-.88,2.01-1.59,3.78-2.12,1.77-.53,4.16-.8,7.17-.8,1.5,0,3.01.1,4.54.26-6.2-6.16-10.7-14.37-12.38-23.76Z"/>
  <path class="cls-1" d="M473.8,618.65c.59,0,1.16-.02,1.74-.03-.56-.06-1.14-.05-1.74.03Z"/>
  <path class="cls-1" d="M555.78,600.91c-.04-.67-.42-1.29-.81-1.42-.55-.19-1.17.1-1.58.58-2.32,2.69-4.7,8.07-6.58,13.6,1.38.68,2.8,1.31,4.29,1.85,2.78-5.09,4.9-10.44,4.68-14.61Z"/>
  <path class="cls-1" d="M525.47,553.85v20.85c0,13.9,3.98,24.7,11.95,32.4.8.77,1.65,1.47,2.51,2.16,1.03-2.49,2.09-4.97,3.1-7.48l1.59-2.59c3.97-1.75,7.7-3.77,11.93-4.98,3.11-.89,2.73,10.29.87,14.83-1.05,2.57-2.33,4.95-3.69,7.31,5.07,1.5,10.71,2.3,17.01,2.3,14.25,0,25.36-3.85,33.32-11.55,7.96-7.7,11.95-18.5,11.95-32.4v-51.11h-30.8v50.18c0,7.08-1.26,12.11-3.78,15.07-2.52,2.97-6,4.45-10.42,4.45s-7.79-1.48-10.36-4.45c-2.57-2.96-3.85-7.99-3.85-15.07v-50.18h-7.72c-3,13.82-12.05,24.9-23.62,30.26ZM573.59,609.08c1.25-2.31,1.96-4.71,2.76-7.42,4.12,2.43,4.41,2.77,8.55.5-.34,2.65-.26,5.78-1.7,7.98-2.59,3.98-6.25,1.12-9.52.72-.43-.49-.45-1.14-.09-1.79Z"/>
  <rect class="cls-1" x="659.03" y="558.11" width="2.12" height="22.57"/>
  <polygon class="cls-1" points="707.62 592.89 661.16 592.89 661.16 580.68 659.03 580.68 659.03 558.11 661.16 558.11 661.16 547.22 705.9 547.22 705.9 523.59 630.36 523.59 630.36 616.53 707.62 616.53 707.62 592.89"/>
  <rect class="cls-1" x="661.16" y="558.11" width="39.3" height="22.57"/>
</svg>
